/* XPM */
static char *automatic[]={
"32 32 8 1",
". c None",
"d c #000000",
"b c #585858",
"a c #808000",
"# c #a0a0a0",
"c c #c0c000",
"e c #ffc0c0",
"f c #ffffff",
"................................",
"................................",
"................................",
"......###################.......",
"......#aaaaaaaaaaaaaaaaab.......",
"......#abbbbbbbbbbbbbb#ab.......",
"......#abccccccccccccc#ab.......",
"......#abccccccccccccc#ab.......",
"......#abccccddddddccc#ab.......",
"......#abcccdeeeeeedcc#ab.......",
"......#abccdeeeeeeeedc#ab.......",
"......#abcdedddedddedc#ab.......",
"......#abcdedddddddddc#ab.......",
"......#abcdedffddffddc#ab.......",
"......#abcdeeddeeddedc#ab.......",
"......#abcdeddeeeeeedc#ab.......",
"......#abcdeddddeeeedc#ab.......",
"......#abcdeeeddeededc#ab.......",
"......#abcdeeeeeeddedc#ab.......",
"......#abcdeeeeeeddedc#ab.......",
"......#abcddedddddeedc#ab.......",
"......#abccddeddeeeddc#ab.......",
"......#abcccddeeeeddcc#ab.......",
"......#abccccdeeedcccc#ab.......",
"......#a###############ab.......",
"......#aaaaaaaaaaaaaaaaab.......",
"......#bbbbbbbbbbbbbbbbbb.......",
"................................",
"................................",
"................................",
"................................",
"................................"};
