/* XPM */
static char *automatic3[]={
"32 32 8 1",
"a c None",
". c #000000",
"d c #585858",
"c c #808000",
"b c #a0a0a0",
"e c #c0c000",
"f c #ffc0c0",
"# c #ffffff",
"..##..aaaaaaaaaaaaaaaaaaaaaaaaaa",
"#..###..aaaaaaaaaaaaaaaaaaaaaaaa",
"##...##.aaaaaaaaaaaaaaaaaaaaaaaa",
"##...##..aaaaaaaaaaaaaaaaaaaaaaa",
".#..####.aaaaaaaaaaaaaaaaaaaaaaa",
"a..##..#..aaaaaaaaaaaaaaaaaaaaaa",
"aa.##..##..aaaaaaaaaaaaaaaaaaaaa",
"aa.######...aaaaaaaaaaaaaaaaaaaa",
"aaa.####..##.bbbbbbbbbbbbbbbbbbb",
"aaaa.##...###bcccccccccccccccccd",
"aaaa..###.###bcddddddddddddddbcd",
"aaaaa.####.##bcdeeeeeeeeeeeeebcd",
"aaaaaa.####.#bcdeeeeeeeeeeeeebcd",
"aaaaaaa.###.#bcdeeeeeeeeeeeeebcd",
"aaaaaaa.####.bcdeeeee......eebcd",
"aaaaaaaa.####.cdeeee.ffffff.ebcd",
"aaaaaaaaa.####.deee.ffffffff.bcd",
"aaaaaaaaaa.###.dee.f...f...ffbcd",
"aaaaaaaaaa.####..e.f..#...#.fbcd",
"aaaaaaaaaaa.####.e.f......#.fbcd",
"aaaaaaaaaaaa.####..ff..ff..ffbcd",
"aaaaaaaaaaaaa.####.f..fffffffbcd",
"aaaaaaaaaaaaab.###......fffffbcd",
"aaaaaaaaaaaaabc.....ff..ffff.bcd",
"aaaaaaaaaaaaabcdee.ff..fffff.bcd",
"aaaaaaaaaaaaabcdee.ff....fff.bcd",
"aaaaaaaaaaaaabcdee..ff....ff.bcd",
"aaaaaaaaaaaaabcdeee..fff..f..bcd",
"aaaaaaaaaaaaabcdeeee.fffff..ebcd",
"aaaaaaaaaaaaabcbbbbbbbbbbbbbbbcd",
"aaaaaaaaaaaaabcccccccccccccccccd",
"aaaaaaaaaaaaabdddddddddddddddddd"};
