/* XPM */
static char *col[]={
"16 16 8 1",
". c None",
"# c #000000",
"f c #303030",
"e c #585858",
"b c #808080",
"d c #a0a0a0",
"c c #c3c3c3",
"a c #ffffff",
"....#aaaaaaaaaa#",
"....#aaaaaaaaaa#",
"....############",
"......#bca#bc#..",
"......#bca#bc#..",
"......#bca#bc#..",
"......#bca#bc#..",
"d.....#bca#bc#..",
"ddd...#bca#bc#..",
"eedd..#bca#bc#..",
"eeeddd#bca#bc#..",
"eeeeee#bca#bc#..",
"ffeeee#bca#bc#..",
"#ffe############",
"##ff#aaaaaaaaaa#",
"###f#aaaaaaaaaa#"};
