/* XPM */
static char *floppy[]={
"16 16 10 1",
". c None",
"# c #000000",
"e c #000080",
"c c #0000c0",
"a c #0000ff",
"b c #303030",
"g c #808080",
"h c #a0a0a4",
"f c #c0c0c0",
"d c #ffffff",
"................",
".......#........",
"......#ab#......",
".....#acdd##....",
"....#acddddd##..",
"...#acdddddddc##",
"..#aeaacddddcae#",
".#aefeeaacdcae#.",
"#aefaffeeacae#..",
"#egfffhaaeae#...",
".##g.haaeae#....",
"...##gaeae#.....",
".....##ee#......",
".......##.......",
"................",
"................"};
