#define kill_width 16
#define kill_height 16
static unsigned char kill_bits[] = {
   0x04, 0xc0, 0x0a, 0xe0, 0x16, 0x70, 0x2e, 0xb8, 0x5c, 0x5c, 0xb8, 0x2e,
   0x70, 0x17, 0xe0, 0x0a, 0xc0, 0x05, 0xe0, 0x0a, 0x70, 0x17, 0xb8, 0x2e,
   0x5c, 0x5c, 0x2e, 0xb8, 0x16, 0x70, 0x0a, 0xe0};
