#define mag_msk_width 16
#define mag_msk_height 16
static unsigned char mag_msk_bits[] = {
   0xf0, 0x00, 0xfc, 0x03, 0xfe, 0x07, 0xfe, 0x07, 0xff, 0x0f, 0xff, 0x0f,
   0xff, 0x0f, 0xff, 0x0f, 0xfe, 0x07, 0xfe, 0x0f, 0xfc, 0x1f, 0xf0, 0x3e,
   0x00, 0x7c, 0x00, 0xf8, 0x00, 0xf0, 0x00, 0xe0};
