#define program_width 32
#define program_height 32
static unsigned char program_bits[] = {
   0x00, 0x00, 0x00, 0x00, 0x00, 0x00, 0x00, 0x00, 0x00, 0x00, 0x00, 0x00,
   0x00, 0x00, 0x00, 0x00, 0xc0, 0x00, 0x00, 0x00, 0x20, 0x01, 0x00, 0x00,
   0x20, 0x00, 0x00, 0x20, 0x20, 0x00, 0x00, 0x30, 0xf8, 0x38, 0x00, 0x28,
   0x20, 0x44, 0x7c, 0x24, 0x10, 0x44, 0x00, 0x22, 0x10, 0x44, 0x7c, 0x7e,
   0x10, 0x64, 0x01, 0x20, 0x10, 0x98, 0x00, 0x20, 0x12, 0x00, 0x00, 0x00,
   0x0c, 0x00, 0x00, 0x00, 0x00, 0x00, 0x00, 0x00, 0x00, 0x00, 0x00, 0x00,
   0x00, 0x00, 0x84, 0x03, 0x40, 0x00, 0x46, 0x04, 0x30, 0x00, 0x04, 0x04,
   0x48, 0x7c, 0x04, 0x02, 0x48, 0x00, 0x04, 0x01, 0x30, 0x7c, 0x84, 0x00,
   0x08, 0x00, 0x44, 0x00, 0x70, 0x00, 0xce, 0x07, 0x88, 0x01, 0x00, 0x00,
   0x08, 0x01, 0x00, 0x00, 0x08, 0x01, 0x00, 0x00, 0xf0, 0x00, 0x00, 0x00,
   0x00, 0x00, 0x00, 0x00, 0x00, 0x00, 0x00, 0x00};
