#define slider_width 32
#define slider_height 32
static unsigned char slider_bits[] = {
   0x00, 0x00, 0x00, 0x00, 0x00, 0x00, 0x00, 0x00, 0x00, 0x62, 0x00, 0x00,
   0x00, 0x93, 0x00, 0x00, 0x00, 0x42, 0x00, 0x00, 0x00, 0x22, 0x00, 0x00,
   0x00, 0xf7, 0x00, 0x00, 0x00, 0x00, 0x00, 0x00, 0x00, 0x00, 0x00, 0x00,
   0xfc, 0xff, 0xff, 0x3f, 0x04, 0x36, 0x00, 0x20, 0x04, 0x36, 0x00, 0x20,
   0xfc, 0xff, 0xff, 0x3f, 0x00, 0x00, 0x00, 0x00, 0x00, 0x00, 0x00, 0x00,
   0x00, 0x00, 0x00, 0x00, 0x00, 0x80, 0x00, 0x00, 0x00, 0x80, 0x01, 0x00,
   0x00, 0x80, 0x03, 0x00, 0x00, 0x80, 0x07, 0x00, 0x00, 0x80, 0x0f, 0x00,
   0x00, 0x80, 0x07, 0x00, 0x00, 0x80, 0x07, 0x00, 0x00, 0x00, 0x06, 0x00,
   0x00, 0x00, 0x06, 0x00, 0x00, 0x00, 0x0c, 0x00, 0x00, 0x00, 0x0c, 0x00,
   0x00, 0x00, 0x0c, 0x00, 0x00, 0x00, 0x00, 0x00, 0x00, 0x00, 0x00, 0x00,
   0x00, 0x00, 0x00, 0x00, 0x00, 0x00, 0x00, 0x00};
