/* XPM */
static char *toolbox_open[]={
"16 16 12 1",
". c None",
"b c #000000",
"h c #2b1702",
"a c #482704",
"c c #82683b",
"i c #8c4c07",
"e c #8e8e8e",
"j c #ca6d0a",
"# c #cacbcb",
"g c #ed800c",
"d c #ffc0c0",
"f c #ffff00",
".............#..",
"...aab..........",
".baacca.........",
"aaddccca........",
"dddddccca.......",
"dddddddaaaaaaaaa",
"aadddaaeeecaafga",
"gabaaeeeebafffga",
"cchhhaaaaaafbggi",
"haaijjjjhggfgggi",
"..aiijjjaggggggi",
"..aiiijjaggggii.",
"..aaiijjaggii...",
"..baaiijaii.....",
"..bbaaaaa.......",
"................"};
