/* XPM */
static char *automatic2[]={
"32 32 8 1",
". c None",
"# c #000000",
"d c #585858",
"c c #808000",
"b c #a0a0a0",
"e c #c0c000",
"f c #ffc0c0",
"a c #ffffff",
".....#a#........................",
"....#aa#........................",
"#...#aa#........................",
"a####aa##.......................",
"aa##aaaa##......................",
"aa#aa##a####....................",
"aa#aa##aa#aa#...................",
"###aaaaaa#aa###.................",
"..##aaaa##aaabbbbbbbbbbbbbbbbbbb",
"...#aaa#.##aabcccccccccccccccccd",
"....#aaa#..#abcddddddddddddddbcd",
"....#aaaa#..#bcdeeeeeeeeeeeeebcd",
".....#aaa#...bcdeeeeeeeeeeeeebcd",
".....#aaaa#..bcdeeeeeeeeeeeeebcd",
"......#aaa#..bcdeeeee######eebcd",
"......#aaaa#.bcdeeee#ffffff#ebcd",
".......#aaa#.bcdeee#ffffffff#bcd",
".......#aaaa#bcdee#f###f###ffbcd",
"........#aaa#bcdee#f##a###a#fbcd",
"........#aaaa#cdee#f######a#fbcd",
".........#aaa#cdee#ff##ff##ffbcd",
".........#aaaa#dee#f##fffffffbcd",
"..........#aaa#dee#f####fffffbcd",
"..........#aaa#dee#fff##ffff#bcd",
"...........####dee#ff##fffff#bcd",
".............bcdee#ff####fff#bcd",
".............bcdee##ff####ff#bcd",
".............bcdeee##fff##f##bcd",
".............bcdeeee#fffff##ebcd",
".............bcbbbbbbbbbbbbbbbcd",
".............bcccccccccccccccccd",
".............bdddddddddddddddddd"};
