/* XPM */
static char *automatic1[]={
"32 32 8 1",
". c None",
"# c #000000",
"d c #585858",
"c c #808000",
"b c #a0a0a0",
"e c #c0c000",
"f c #ffc0c0",
"a c #ffffff",
"....#a#.........................",
"#...#a##........................",
"##..#aa#........................",
"a####aa##.......................",
"aa##aaaa#.......................",
"aa#aa##a##......................",
"###aa##aa##.....................",
"..#aaaaaa###....................",
"...#aaaa##aa#bbbbbbbbbbbbbbbbbbb",
"....#aa###aa.bcccccccccccccccccd",
"....#aaa####abcddddddddddddddbcd",
".....#aaa#.#.bcdeeeeeeeeeeeeebcd",
".....#aaa##.#bcdeeeeeeeeeeeeebcd",
"......#aaa#..bcdeeeeeeeeeeeeebcd",
".......#aaa#.bcdeeeee######eebcd",
".......#aaaa#bcdeeee#ffffff#ebcd",
"........#aaa#bcdeee#ffffffff#bcd",
"........#aaaa#cdee#f###f###ffbcd",
".........#aaa#cdee#f##a###a#fbcd",
"..........#aaa#dee#f######a#fbcd",
"..........#aaaa#ee#ff##ff##ffbcd",
"...........#aaa##e#f##fffffffbcd",
"...........#aaaa#e#f####fffffbcd",
"............#####e#fff##ffff#bcd",
".............bcdee#ff##fffff#bcd",
".............bcdee#ff####fff#bcd",
".............bcdee##ff####ff#bcd",
".............bcdeee##fff##f##bcd",
".............bcdeeee#fffff##ebcd",
".............bcbbbbbbbbbbbbbbbcd",
".............bcccccccccccccccccd",
".............bdddddddddddddddddd"};
