/* XPM */
static char * magin_xpm[] = {
/* width height ncolors cpp [x_hot y_hot] */
"16 16 4 1 -1 -1",
/* colors */
" 	s none	m none	c none",
".	s iconColor1	m black	c black",
"X	s iconColor2	m white	c white",
"o	s iconGray1	m white	c #dededededede",
/* pixels */
"    ....        ",
"  ..XXXX..      ",
" .XXXXXXXX.     ",
" .XXX..XXX.     ",
".XXXX..XXXX.    ",
".XX......XX.o   ",
".XX......XX.o   ",
".XXXX..XXXX.o   ",
" .XXX..XXX.o    ",
" .XXXXXXXX..o   ",
"  ..XXXX...X.   ",
"    ....o.X.X.  ",
"     ooo o...X. ",
"           ...X.",
"            ...X",
"             ..."};
