#define magin_src_width 16
#define magin_src_height 16
static unsigned char magin_src_bits[] = {
   0x00, 0x00, 0xf0, 0x00, 0xfc, 0x03, 0x9c, 0x03, 0x9e, 0x07, 0x06, 0x06,
   0x06, 0x06, 0x9e, 0x07, 0x9c, 0x03, 0xfc, 0x03, 0xf0, 0x08, 0x00, 0x14,
   0x00, 0x20, 0x00, 0x40, 0x00, 0x80, 0x00, 0x00};
