/* XPM */
static char *tools[]={
"16 16 7 1",
". c None",
"# c #000000",
"e c #00c0c0",
"c c #808080",
"a c #a0a0a0",
"b c #c0ffff",
"d c #c3c3c3",
"................",
"..........####..",
".........#abc...",
".........#b#..#.",
".........#bd#c#.",
"........#bdeee#.",
".......#bde###..",
"......#bde#.....",
".....#bde#......",
"....#bde#.......",
"...#bde#........",
"..#bde#.........",
".#bde#..........",
"#bee#...........",
"#ee#............",
".##............."};
