/* XPM */
static char *toolbox_closed[]={
"16 16 10 1",
". c None",
"a c #000000",
"b c #2b1702",
"c c #482704",
"f c #8c4c07",
"h c #ca6d0a",
"# c #cacbcb",
"d c #ed800c",
"g c #ffff00",
"e c #ffffff",
".............#..",
".........abcc...",
".......ccabdec..",
".....cccfabeecc.",
"...ccccffaddddc.",
"..cfffccddddcfc.",
".bfffffcddccgfc.",
".afffffcacgggdc.",
".bbbcccccfgaddf.",
".cfhhhhbffgdddf.",
".cffhhhcddddddf.",
".cfffhhcddddff..",
".ccffhhcddff....",
".accffhcff......",
".aaccccc........",
"................"};
