#define watch_2_width 16
#define watch_2_height 16
static unsigned char watch_2_bits[] = {
   0x1f, 0x9c, 0x07, 0x10, 0xe3, 0x23, 0xf9, 0xcf, 0xe9, 0xcf, 0xdc, 0x9f,
   0xbc, 0x9f, 0x7c, 0x9f, 0x7c, 0x9f, 0x7c, 0x9f, 0x79, 0xcf, 0x79, 0xcf,
   0xe3, 0xe3, 0x07, 0xf0, 0x1f, 0xfc, 0xff, 0xff};
