#define watch_msk_width 16
#define watch_msk_height 16
#define watch_msk_x_hot 7
#define watch_msk_y_hot 7
static unsigned char watch_msk_bits[] = {
   0xe0, 0x63, 0xf8, 0xef, 0xfc, 0xdf, 0xfe, 0xbf, 0xfe, 0x7f, 0xff, 0x7f,
   0xff, 0xff, 0xff, 0xff, 0xff, 0xff, 0xff, 0xff, 0xfe, 0xff, 0xfe, 0x7f,
   0xfc, 0x7f, 0xf8, 0x3f, 0xf0, 0x1f, 0xc0, 0x07};
