#define watch_1_width 16
#define watch_1_height 16
static unsigned char watch_1_bits[] = {
   0x1f, 0x9c, 0x07, 0x10, 0xe3, 0x23, 0xf9, 0xcf, 0xf9, 0xcf, 0xfc, 0x9f,
   0xfc, 0x9f, 0x04, 0x9f, 0x7c, 0x9f, 0x7c, 0x9f, 0x79, 0xcf, 0x79, 0xcf,
   0xe3, 0xe3, 0x07, 0xf0, 0x1f, 0xfc, 0xff, 0xff};
