#define watch_8_width 16
#define watch_8_height 16
static unsigned char watch_8_bits[] = {
   0x1f, 0x9c, 0x07, 0x10, 0xe3, 0x23, 0xf9, 0xcf, 0xf9, 0xcf, 0xfc, 0x9f,
   0xfc, 0x9f, 0x7c, 0x9f, 0x3c, 0x9f, 0x5c, 0x9f, 0x69, 0xcf, 0x79, 0xcf,
   0xe3, 0xe3, 0x07, 0xf0, 0x1f, 0xfc, 0xff, 0xff};
